<?xml version="1.0" encoding="utf-8"?>
<!-- Generator: Adobe Illustrator 25.4.1, SVG Export Plug-In . SVG Version: 6.00 Build 0)  -->
<svg version="1.1" id="Layer_1" xmlns="http://www.w3.org/2000/svg" xmlns:xlink="http://www.w3.org/1999/xlink" x="0px" y="0px"
	 viewBox="0 0 1000 1000" style="enable-background:new 0 0 1000 1000;" xml:space="preserve">
<style type="text/css">
	.st0{fill:#0C1D41;stroke:#FFFFFF;stroke-width:42.0637;stroke-miterlimit:10;}
	.st1{fill:#FFFFFF;}
	.st2{fill:#ED1C2E;}
</style>
<circle class="st0" cx="498.97" cy="498.2" r="476.1"/>
<g>
	<g>
		<polygon class="st1" points="289.75,705.88 289.75,463.82 251.45,463.82 251.45,406.52 360.46,406.52 360.46,705.88 		"/>
		<path class="st2" d="M325.8,290.51c11.18,0,20.72,3.97,28.65,11.88c7.92,7.93,11.88,17.47,11.88,28.65
			c0,11.18-3.96,20.73-11.88,28.65c-7.93,7.93-17.47,11.88-28.65,11.88c-11.18,0-20.73-3.95-28.65-11.88
			c-7.93-7.91-11.88-17.47-11.88-28.65c0-11.19,3.95-20.72,11.88-28.65C305.07,294.48,314.62,290.51,325.8,290.51z"/>
		<path class="st1" d="M667.37,705.88l-96.71-147.31l-89.45,147.31h-75.75l122.71-212.16L415.25,296.1l74.35,0.28l83.02,138.36
			l91.4-138.36h76.03l-129.7,198.46l136.13,211.04H667.37z"/>
	</g>
</g>
</svg>
